<?xml version="1.0" encoding="utf-8"?>
<!-- Generator: Adobe Illustrator 18.1.1, SVG Export Plug-In . SVG Version: 6.00 Build 0)  -->
<!DOCTYPE svg PUBLIC "-//W3C//DTD SVG 1.1//EN" "http://www.w3.org/Graphics/SVG/1.1/DTD/svg11.dtd">
<svg version="1.1" xmlns="http://www.w3.org/2000/svg" xmlns:xlink="http://www.w3.org/1999/xlink" x="0px" y="0px"
	 viewBox="0 0 360 360" enable-background="new 0 0 360 360" xml:space="preserve">
<g id="Layer_1" display="none">
	<rect x="20" y="20" display="inline" fill="none" stroke="#000000" stroke-miterlimit="10" width="320" height="320"/>
	<rect x="40" y="40" display="inline" fill="none" stroke="#000000" stroke-miterlimit="10" width="280" height="280"/>
	<line display="inline" fill="none" stroke="#231F20" stroke-miterlimit="10" x1="180" y1="0" x2="180" y2="360"/>
	<line display="inline" fill="none" stroke="#231F20" stroke-miterlimit="10" x1="0" y1="180" x2="360" y2="180"/>
</g>
<g id="Layer_5" display="none">
	<rect x="-45" y="-45" display="inline" fill="#1E9FB4" width="450" height="450"/>
</g>
<g id="Layer_4" display="none">
</g>
<g id="Layer_2">
	<g>
		<rect x="170" y="20" fill="#A61210" width="110" height="320"/>
		<rect x="170" y="20" fill="#5C0000" width="110" height="10"/>
		<rect x="219" y="320" fill="#DCDCDC" width="12" height="20"/>
		<rect x="220" y="328" fill="#7B868C" width="10" height="12"/>
		<rect x="170" y="38" fill="#DCDCDC" width="110" height="2"/>
		<rect x="170" y="48" fill="#DCDCDC" width="110" height="2"/>
		<rect x="170" y="58" fill="#DCDCDC" width="110" height="2"/>
		<rect x="170" y="68" fill="#DCDCDC" width="110" height="2"/>
		<rect x="170" y="78" fill="#DCDCDC" width="110" height="2"/>
		<rect x="170" y="88" fill="#DCDCDC" width="110" height="2"/>
		<rect x="170" y="98" fill="#DCDCDC" width="110" height="2"/>
		<rect x="170" y="108" fill="#DCDCDC" width="110" height="2"/>
		<rect x="170" y="118" fill="#DCDCDC" width="110" height="2"/>
		<rect x="170" y="128" fill="#DCDCDC" width="110" height="2"/>
		<rect x="170" y="138" fill="#DCDCDC" width="110" height="2"/>
		<rect x="170" y="148" fill="#DCDCDC" width="110" height="2"/>
		<rect x="170" y="158" fill="#DCDCDC" width="110" height="2"/>
		<rect x="170" y="168" fill="#DCDCDC" width="110" height="2"/>
		<rect x="170" y="178" fill="#DCDCDC" width="110" height="2"/>
		<rect x="170" y="188" fill="#DCDCDC" width="110" height="2"/>
		<rect x="170" y="198" fill="#DCDCDC" width="110" height="2"/>
		<rect x="170" y="208" fill="#DCDCDC" width="110" height="2"/>
		<rect x="170" y="218" fill="#DCDCDC" width="110" height="2"/>
		<rect x="170" y="228" fill="#DCDCDC" width="110" height="2"/>
		<rect x="170" y="238" fill="#DCDCDC" width="110" height="2"/>
		<rect x="170" y="248" fill="#DCDCDC" width="110" height="2"/>
		<rect x="170" y="258" fill="#DCDCDC" width="110" height="2"/>
		<rect x="170" y="268" fill="#DCDCDC" width="110" height="2"/>
		<rect x="170" y="278" fill="#DCDCDC" width="110" height="2"/>
		<rect x="225" y="20" opacity="0.25" fill="#FFFFFF" width="30" height="320"/>
	</g>
	<g>
		<rect x="24" y="180" fill="#7B868C" width="81" height="160"/>
		<rect x="20" y="330" fill="#465260" width="89" height="10"/>
		<polygon fill="#7B868C" points="65,150 95,180 34,180 		"/>
	</g>
	<g>
		<rect x="70" y="60" fill="#DCDCDC" width="110" height="280"/>
		<rect x="80" y="80" fill="#FFFFFF" width="10" height="20"/>
		<rect x="100" y="80" fill="#FFFFFF" width="10" height="20"/>
		<rect x="120" y="80" fill="#FFFFFF" width="10" height="20"/>
		<rect x="140" y="80" fill="#FFFFFF" width="10" height="20"/>
		<rect x="160" y="80" fill="#FFFFFF" width="10" height="20"/>
		<rect x="80" y="110" fill="#FFFFFF" width="10" height="20"/>
		<rect x="100" y="110" fill="#FFFFFF" width="10" height="20"/>
		<rect x="120" y="110" fill="#FFFFFF" width="10" height="20"/>
		<rect x="140" y="110" fill="#FFFFFF" width="10" height="20"/>
		<rect x="160" y="110" fill="#FFFFFF" width="10" height="20"/>
		<rect x="80" y="140" fill="#FFFFFF" width="10" height="20"/>
		<rect x="100" y="140" fill="#FFFFFF" width="10" height="20"/>
		<rect x="120" y="140" fill="#FFFFFF" width="10" height="20"/>
		<rect x="140" y="140" fill="#FFFFFF" width="10" height="20"/>
		<rect x="160" y="140" fill="#FFFFFF" width="10" height="20"/>
		<rect x="80" y="170" fill="#FFFFFF" width="10" height="20"/>
		<rect x="100" y="170" fill="#FFFFFF" width="10" height="20"/>
		<rect x="120" y="170" fill="#FFFFFF" width="10" height="20"/>
		<rect x="140" y="170" fill="#FFFFFF" width="10" height="20"/>
		<rect x="160" y="170" fill="#FFFFFF" width="10" height="20"/>
		<rect x="80" y="200" fill="#FFFFFF" width="10" height="20"/>
		<rect x="100" y="200" fill="#FFFFFF" width="10" height="20"/>
		<rect x="120" y="200" fill="#FFFFFF" width="10" height="20"/>
		<rect x="140" y="200" fill="#FFFFFF" width="10" height="20"/>
		<rect x="160" y="200" fill="#FFFFFF" width="10" height="20"/>
		<rect x="80" y="230" fill="#FFFFFF" width="10" height="20"/>
		<rect x="100" y="230" fill="#FFFFFF" width="10" height="20"/>
		<rect x="120" y="230" fill="#FFFFFF" width="10" height="20"/>
		<rect x="140" y="230" fill="#FFFFFF" width="10" height="20"/>
		<rect x="160" y="230" fill="#FFFFFF" width="10" height="20"/>
		<rect x="80" y="260" fill="#FFFFFF" width="10" height="20"/>
		<rect x="100" y="260" fill="#FFFFFF" width="10" height="20"/>
		<rect x="120" y="260" fill="#FFFFFF" width="10" height="20"/>
		<rect x="140" y="260" fill="#FFFFFF" width="10" height="20"/>
		<rect x="160" y="260" fill="#FFFFFF" width="10" height="20"/>
		<rect x="80" y="290" fill="#FFFFFF" width="10" height="20"/>
		<rect x="100" y="290" fill="#FFFFFF" width="10" height="20"/>
		<rect x="120" y="290" fill="#FFFFFF" width="10" height="20"/>
		<rect x="140" y="290" fill="#FFFFFF" width="10" height="20"/>
		<rect x="160" y="290" fill="#FFFFFF" width="10" height="20"/>
	</g>
	<rect x="180" y="66" opacity="0.5" fill="#231F20" width="10" height="274"/>
	<polygon opacity="0.5" fill="#231F20" points="60,154.8 65,150 70,155 70,340 60,340 	"/>
	<rect x="240" y="134" opacity="0.5" fill="#231F20" width="10" height="206"/>
	<g>
		<rect x="250" y="128" fill="#323947" width="90" height="212"/>
		<rect x="260" y="138" fill="#FFFFFF" width="10" height="10"/>
		<rect x="280" y="138" fill="#FFFFFF" width="10" height="10"/>
		<rect x="300" y="138" fill="#FFFFFF" width="10" height="10"/>
		<rect x="320" y="138" fill="#FFFFFF" width="10" height="10"/>
		<rect x="260" y="150" fill="#FFFFFF" width="10" height="10"/>
		<rect x="280" y="150" fill="#FFFFFF" width="10" height="10"/>
		<rect x="300" y="150" fill="#FFFFFF" width="10" height="10"/>
		<rect x="320" y="150" fill="#FFFFFF" width="10" height="10"/>
		<rect x="260" y="162" fill="#FFFFFF" width="10" height="10"/>
		<rect x="280" y="162" fill="#FFFFFF" width="10" height="10"/>
		<rect x="300" y="162" fill="#FFFFFF" width="10" height="10"/>
		<rect x="320" y="162" fill="#FFFFFF" width="10" height="10"/>
		<rect x="260" y="174" fill="#FFFFFF" width="10" height="10"/>
		<rect x="280" y="174" fill="#FFFFFF" width="10" height="10"/>
		<rect x="300" y="174" fill="#FFFFFF" width="10" height="10"/>
		<rect x="320" y="174" fill="#FFFFFF" width="10" height="10"/>
		<rect x="260" y="186" fill="#FFFFFF" width="10" height="10"/>
		<rect x="280" y="186" fill="#FFFFFF" width="10" height="10"/>
		<rect x="300" y="186" fill="#FFFFFF" width="10" height="10"/>
		<rect x="320" y="186" fill="#FFFFFF" width="10" height="10"/>
		<rect x="260" y="198" fill="#FFFFFF" width="10" height="10"/>
		<rect x="280" y="198" fill="#FFFFFF" width="10" height="10"/>
		<rect x="300" y="198" fill="#FFFFFF" width="10" height="10"/>
		<rect x="320" y="198" fill="#FFFFFF" width="10" height="10"/>
		<rect x="260" y="210" fill="#FFFFFF" width="10" height="10"/>
		<rect x="280" y="210" fill="#FFFFFF" width="10" height="10"/>
		<rect x="300" y="210" fill="#FFFFFF" width="10" height="10"/>
		<rect x="320" y="210" fill="#FFFFFF" width="10" height="10"/>
		<rect x="260" y="222" fill="#FFFFFF" width="10" height="10"/>
		<rect x="280" y="222" fill="#FFFFFF" width="10" height="10"/>
		<rect x="300" y="222" fill="#FFFFFF" width="10" height="10"/>
		<rect x="320" y="222" fill="#FFFFFF" width="10" height="10"/>
		<rect x="260" y="234" fill="#FFFFFF" width="10" height="10"/>
		<rect x="280" y="234" fill="#FFFFFF" width="10" height="10"/>
		<rect x="300" y="234" fill="#FFFFFF" width="10" height="10"/>
		<rect x="320" y="234" fill="#FFFFFF" width="10" height="10"/>
		<rect x="260" y="246" fill="#FFFFFF" width="10" height="10"/>
		<rect x="280" y="246" fill="#FFFFFF" width="10" height="10"/>
		<rect x="300" y="246" fill="#FFFFFF" width="10" height="10"/>
		<rect x="320" y="246" fill="#FFFFFF" width="10" height="10"/>
		<rect x="260" y="258" fill="#FFFFFF" width="10" height="10"/>
		<rect x="280" y="258" fill="#FFFFFF" width="10" height="10"/>
		<rect x="300" y="258" fill="#FFFFFF" width="10" height="10"/>
		<rect x="320" y="258" fill="#FFFFFF" width="10" height="10"/>
		<rect x="260" y="270" fill="#FFFFFF" width="10" height="10"/>
		<rect x="280" y="270" fill="#FFFFFF" width="10" height="10"/>
		<rect x="300" y="270" fill="#FFFFFF" width="10" height="10"/>
		<rect x="320" y="270" fill="#FFFFFF" width="10" height="10"/>
		<rect x="260" y="282" fill="#FFFFFF" width="10" height="10"/>
		<rect x="280" y="282" fill="#FFFFFF" width="10" height="10"/>
		<rect x="300" y="282" fill="#FFFFFF" width="10" height="10"/>
		<rect x="320" y="282" fill="#FFFFFF" width="10" height="10"/>
		<rect x="260" y="294" fill="#FFFFFF" width="10" height="10"/>
		<rect x="280" y="294" fill="#FFFFFF" width="10" height="10"/>
		<rect x="300" y="294" fill="#FFFFFF" width="10" height="10"/>
		<rect x="320" y="294" fill="#FFFFFF" width="10" height="10"/>
		<rect x="260" y="306" fill="#FFFFFF" width="10" height="10"/>
		<rect x="280" y="306" fill="#FFFFFF" width="10" height="10"/>
		<rect x="300" y="306" fill="#FFFFFF" width="10" height="10"/>
		<rect x="320" y="306" fill="#FFFFFF" width="10" height="10"/>
	</g>
</g>
</svg>
