<?xml version="1.0" encoding="utf-8"?>
<!-- Generator: Adobe Illustrator 18.1.1, SVG Export Plug-In . SVG Version: 6.00 Build 0)  -->
<!DOCTYPE svg PUBLIC "-//W3C//DTD SVG 1.1//EN" "http://www.w3.org/Graphics/SVG/1.1/DTD/svg11.dtd">
<svg version="1.1" xmlns="http://www.w3.org/2000/svg" xmlns:xlink="http://www.w3.org/1999/xlink" x="0px" y="0px"
	 viewBox="0 0 120 120" enable-background="new 0 0 120 120" xml:space="preserve">
<g id="Base">
	<circle fill="#DCDCDC" cx="60" cy="60" r="50"/>
</g>
<g id="arrows">
	<g>
		<path fill="#FFFFFF" d="M100,49.5c-10.8,0-19.5-8.7-19.5-19.5s8.7-19.5,19.5-19.5s19.5,8.7,19.5,19.5S110.8,49.5,100,49.5z"/>
		<path fill="#DCDCDC" d="M100,11c10.5,0,19,8.5,19,19c0,10.5-8.5,19-19,19s-19-8.5-19-19C81,19.5,89.5,11,100,11 M100,10
			c-11,0-20,9-20,20c0,11,9,20,20,20s20-9,20-20C120,19,111,10,100,10L100,10z"/>
	</g>
	<polygon fill="#553285" points="115,30 100,20 100,26 88,26 88,34 100,34 100,40 	"/>
</g>
<g id="Art">
	<path fill="#553285" d="M77.6,17.6C61.7,16.4,45.9,15.2,30,14c0,30.7,0,61.3,0,92c18.8-1.2,37.6-2.4,56.4-3.6
		c4.3-2.7,8.2-6.1,11.6-9.9c0-16.2,0-32.4,0-48.5C91.2,35.5,84.4,26.7,77.6,17.6z"/>
	<path fill="#BC9CF5" d="M71.9,35.8c8.7,2.8,17.4,5.5,26.1,8.1c-6.8-8.5-13.6-17.3-20.4-26.3C75.7,23.6,73.8,29.7,71.9,35.8z"/>
	<path opacity="0.25" d="M30,18.8c0,28.4,0,58.8,0,87.2c17-1.1,34-2.2,51-3.2c0-17.9,0-35.9,0-53.8C74.2,40.3,67.4,29.3,60.6,20
		C50.4,19.4,40.2,19.1,30,18.8z"/>
	<path fill="#6EBAFF" d="M57.6,22c-15.9-1-31.7-2-47.6-3c0,31.7,0,63.3,0,95c17.6-1.3,35.2-2.7,52.8-4c0.1,0,0.3-0.1,0.4-0.1
		c5.2-0.3,10.1-1.5,14.8-3.2c0-19.2,0-38.5,0-57.7C71.2,40.3,64.4,31.3,57.6,22z"/>
	<path fill="none" stroke="#323947" stroke-width="3" stroke-miterlimit="10" d="M17,95.3c17.3-0.8,34.7-1.7,52-2.5"/>
	<path fill="none" stroke="#323947" stroke-width="3" stroke-miterlimit="10" d="M17,84.2c17.3-0.5,34.7-1.1,52-1.6"/>
	<path fill="none" stroke="#323947" stroke-width="3" stroke-miterlimit="10" d="M17,73.2c17.3-0.3,34.7-0.5,52-0.8"/>
	<path fill="none" stroke="#323947" stroke-width="3" stroke-miterlimit="10" d="M17,62.1c17.3,0,34.7,0.1,52,0.1"/>
	<path fill="none" stroke="#323947" stroke-width="3" stroke-miterlimit="10" d="M17,51.1c17.3,0.3,34.7,0.6,52,0.9"/>
	<path fill="none" stroke="#323947" stroke-width="3" stroke-miterlimit="10" d="M17,40c8.7,0.3,17.3,0.6,26,0.9"/>
	<path fill="#AEE4FF" d="M52,41c8.7,2.8,17.3,5.4,26,8C71.2,40.3,64.4,31.3,57.6,22C55.7,28.3,53.9,34.6,52,41z"/>
	<path opacity="0.25" d="M98,51.2c0-2.4,0-4.9,0-7.3c-8.7-2.6-17.4-5.3-26.1-8.1C80.6,41.2,89.3,46.3,98,51.2z"/>
	<path opacity="0.25" d="M78,56.4c0-2.5,0-4.9,0-7.4c-8.7-2.6-17.3-5.2-26-8C60.7,46.4,69.3,51.4,78,56.4z"/>
</g>
</svg>
