<?xml version="1.0" encoding="utf-8"?>
<!-- Generator: Adobe Illustrator 18.1.1, SVG Export Plug-In . SVG Version: 6.00 Build 0)  -->
<!DOCTYPE svg PUBLIC "-//W3C//DTD SVG 1.1//EN" "http://www.w3.org/Graphics/SVG/1.1/DTD/svg11.dtd">
<svg version="1.1" xmlns="http://www.w3.org/2000/svg" xmlns:xlink="http://www.w3.org/1999/xlink" x="0px" y="0px"
	 viewBox="0 0 120 120" enable-background="new 0 0 120 120" xml:space="preserve">
<g id="Base">
	<circle fill="#DCDCDC" cx="60" cy="60" r="50"/>
</g>
<g id="arrows">
	<g>
		<path fill="#FFFFFF" d="M100,49.5c-10.8,0-19.5-8.7-19.5-19.5s8.7-19.5,19.5-19.5s19.5,8.7,19.5,19.5S110.8,49.5,100,49.5z"/>
		<path fill="#DCDCDC" d="M100,11c10.5,0,19,8.5,19,19c0,10.5-8.5,19-19,19c-10.5,0-19-8.5-19-19C81,19.5,89.5,11,100,11 M100,10
			c-11,0-20,9-20,20c0,11,9,20,20,20c11,0,20-9,20-20C120,19,111,10,100,10L100,10z"/>
	</g>
	<polygon fill="#A61210" points="115,30 100,20 100,26 88,26 88,34 100,34 100,40 	"/>
</g>
<g id="Art">
	<path fill="none" stroke="#323947" stroke-width="3" stroke-miterlimit="10" d="M80,31.5"/>
	<g>
		<g>
			<g>
				<g>
					<path fill="#A61210" d="M91,81c-26.7,0-53.3,0-80,0c3.5-23.5,6.5-47.5,10-71c19.7,0,40.3,0,60,0C84.5,33.5,87.5,57.5,91,81z"/>
					<path fill="#F63723" d="M21,10c2.6,4.3,6.9,9.7,10,14c14,0,26,0,40,0c3.1-4.3,7.4-9.7,10-14C61.3,10,40.7,10,21,10z"/>
					<g>
						<g>
							<path fill="#F08400" d="M83,76c-21,0-43,0-64,0c0.1-1.2,0.9-1.8,1-3c20.7,0,41.3,0,62,0C82.1,74.2,82.9,74.8,83,76z"/>
						</g>
						<g>
							<path fill="#F08400" d="M82,66c-20.2,0-41.8,0-62,0c0.1-1.2,0.9-1.8,1-3c19.9,0,40.1,0,60,0C81.1,64.2,81.9,64.8,82,66z"/>
						</g>
						<g>
							<path fill="#F08400" d="M80,56c-19.5,0-38.5,0-58,0c0.1-1.2,0.9-1.8,1-3c19.2,0,36.8,0,56,0C79.1,54.2,79.9,54.8,80,56z"/>
						</g>
						<g>
							<path fill="#F08400" d="M79,46c-18.7,0-37.3,0-56,0c0.1-1.2,0.9-1.8,1-3c18.5,0,35.5,0,54,0C78.1,44.2,78.9,44.8,79,46z"/>
						</g>
						<g>
							<path fill="#F08400" d="M78,36c-18,0-36,0-54,0c0.1-1.2,0.9-1.8,1-3c17.7,0,34.3,0,52,0C77.1,34.2,77.9,34.8,78,36z"/>
						</g>
						<g>
							<path fill="#F08400" d="M77,27c-17.3,0-34.7,0-52,0c0.1-1.2,0.9-1.8,1-3c17,0,33,0,50,0C76.1,25.2,76.9,25.8,77,27z"/>
						</g>
						<g>
							<path fill="#F08400" d="M76,18c-16.5,0-33.5,0-50,0c0.1-1.2,0.9-1.8,1-3c16.2,0,31.8,0,48,0C75.1,16.2,75.9,16.8,76,18z"/>
						</g>
					</g>
					<g>
						<g>
							<path fill="#FFBD2F" d="M80,81c-19.6,0-38.4,0-58,0c-0.7-1.6-2.3-3.4-3-5c21,0,43,0,64,0C82.3,77.6,80.7,79.4,80,81z"/>
						</g>
						<g>
							<path fill="#FFBD2F" d="M79,73c-18.5,0-37.5,0-56,0c-0.9-2-2.2-5-3-7c20.2,0,41.8,0,62,0C81.2,68,79.9,71,79,73z"/>
						</g>
						<g>
							<path fill="#FFBD2F" d="M78,63c-17.8,0-36.2,0-54,0c-0.8-2-1.2-5-2-7c19.5,0,38.5,0,58,0C79.2,58,78.8,61,78,63z"/>
						</g>
						<g>
							<path fill="#FFBD2F" d="M77,53c-17.2,0-34.8,0-52,0c-0.8-2-1.2-5-2-7c18.7,0,37.3,0,56,0C78.3,48,77.8,51,77,53z"/>
						</g>
						<g>
							<path fill="#FFBD2F" d="M76,43c-16.5,0-33.5,0-50,0c-0.8-2-1.3-5-2-7c18,0,36,0,54,0C77.3,38,76.8,41,76,43z"/>
						</g>
						<g>
							<path fill="#FFBD2F" d="M75,33c-15.9,0-32.1,0-48,0c-0.7-2-1.3-4-2-6c17.3,0,34.7,0,52,0C76.3,29,75.7,31,75,33z"/>
						</g>
						<g>
							<path fill="#FFBD2F" d="M74,24c-15.2,0-30.8,0-46,0c-0.7-2-1.4-4-2-6c16.5,0,33.5,0,50,0C75.4,20,74.7,22,74,24z"/>
						</g>
					</g>
				</g>
				<g>
					<path fill="#5C0000" d="M81,110c-19.7,0-40.3,0-60,0c-3.5-9.8-6.5-19.2-10-29c26.7,0,53.3,0,80,0C87.5,90.8,84.5,100.2,81,110z
						"/>
					<g>
						<path fill="#F08400" d="M60.9,87c-0.1,0.8-0.2,1.6-0.4,2.3c-0.1,0.9-0.3,1.8-0.4,2.7H41.9c-0.1-0.9-0.3-1.8-0.4-2.7
							c-0.1-0.8-0.3-1.6-0.4-2.3H60.9 M62,86c-7,0-15,0-22,0c0.2,2.4,0.8,4.6,1,7c6.5,0,13.5,0,20,0C61.2,90.6,61.8,88.4,62,86
							L62,86z"/>
					</g>
					<path fill="#F08400" d="M60,98c0,0,0,0,0,1c-6,0-12,0-18,0c0-1,0.1-1,0-1c-0.8,0-2.2,0-3,0c0,0,0.6,0.5,0.7,0.9
						c0.1,0.8,0.2,1.1,0.3,2.1c7.4,0,14.7,0,22.1,0c0.1-1,0.2-1.3,0.3-2.1c0-0.4,0.6-0.9,0.7-0.9C62.2,98,60.8,98,60,98z"/>
					<polygon opacity="0.25" points="61,102 41,102 40,101 62.1,101 					"/>
				</g>
			</g>
		</g>
	</g>
</g>
</svg>
