<?xml version="1.0" encoding="utf-8"?>
<!-- Generator: Adobe Illustrator 18.1.1, SVG Export Plug-In . SVG Version: 6.00 Build 0)  -->
<!DOCTYPE svg PUBLIC "-//W3C//DTD SVG 1.1//EN" "http://www.w3.org/Graphics/SVG/1.1/DTD/svg11.dtd">
<svg version="1.1" xmlns="http://www.w3.org/2000/svg" xmlns:xlink="http://www.w3.org/1999/xlink" x="0px" y="0px"
	 viewBox="0 0 120 120" enable-background="new 0 0 120 120" xml:space="preserve">
<g id="Base">
	<circle fill="#DCDCDC" cx="60" cy="60" r="50"/>
</g>
<g id="arrows">
	<g>
		<path fill="#FFFFFF" d="M100,49.5c-10.8,0-19.5-8.7-19.5-19.5s8.7-19.5,19.5-19.5s19.5,8.7,19.5,19.5S110.8,49.5,100,49.5z"/>
		<path fill="#DCDCDC" d="M100,11c10.5,0,19,8.5,19,19c0,10.5-8.5,19-19,19s-19-8.5-19-19C81,19.5,89.5,11,100,11 M100,10
			c-11,0-20,9-20,20c0,11,9,20,20,20s20-9,20-20C120,19,111,10,100,10L100,10z"/>
	</g>
	<polygon fill="#6E9628" points="115,30 100,20 100,26 88,26 88,34 100,34 100,40 	"/>
</g>
<g id="Art">
	<path fill="none" stroke="#333947" stroke-width="2.9319" stroke-miterlimit="10" d="M78.2,34.2"/>
	<g>
		<polygon fill="#2B2B85" points="44,105.1 84,91.2 84,26.9 44,13.9 		"/>
		<path fill="#2A4A1D" d="M74,34.8V108c12.9-3.8,23.7-12.6,30-24.3V41.5L74,34.8z"/>
		<g>
			<path fill="#554ECD" d="M4,100c13.3,1.7,26.7,3.4,40,5.1c0-30.4,0-60.9,0-91.3C30.7,15.6,17.3,17.3,4,19C4,46,4,73,4,100z"/>
			<path fill="#6E9628" d="M52,36.2c0,23.3,0,46.7,0,70c6.5,0.8,13,1.7,19.4,2.5c0.9-0.2,1.7-0.4,2.6-0.7c0-24.4,0-48.8,0-73.2
				C66.7,35.2,59.3,35.7,52,36.2z"/>
			<path fill="#2A4A1D" d="M63.4,86.8c-2.8-0.2-5,2-5,4.9c0,2.9,2.2,5.5,5,5.8c2.8,0.3,5-1.9,5-4.9C68.4,89.6,66.1,87,63.4,86.8z"/>
			<path fill="#2A4A1D" d="M54,46.5c6-0.2,12-0.4,18-0.6c0-1.5,0-2.9,0-4.4c-6,0.3-12,0.6-18,0.8C54,43.7,54,45.1,54,46.5z"/>
			<path fill="#2A4A1D" d="M54,54.8c6-0.1,12-0.2,18-0.2c0-1.5,0-2.9,0-4.4c-6,0.1-12,0.3-18,0.4C54,52,54,53.4,54,54.8z"/>
			<path fill="#2A4A1D" d="M54,63.1c6,0.1,12,0.1,18,0.2c0-1.5,0-2.9,0-4.4c-6,0-12,0-18,0C54,60.4,54,61.8,54,63.1z"/>
			<path fill="#2B2B85" d="M24.4,83.9c-2.8-0.2-5,1.8-5,4.4c0,2.6,2.2,4.9,5,5.2c2.8,0.3,5-1.7,5-4.4C29.4,86.5,27.1,84.1,24.4,83.9
				z"/>
			<path fill="#2B2B85" d="M6,31.4c12-1.1,24-2.1,36-3.2c0-1.3,0-2.7,0-4c-12,1.2-24,2.4-36,3.6C6,29,6,30.2,6,31.4z"/>
			<path fill="#2B2B85" d="M6,38.7c12-0.8,24-1.6,36-2.4c0-1.3,0-2.7,0-4C30,33.2,18,34.1,6,35C6,36.3,6,37.5,6,38.7z"/>
			<path fill="#2B2B85" d="M6,45.9c12-0.5,24-1,36-1.5c0-1.3,0-2.7,0-4c-12,0.7-24,1.3-36,2C6,43.5,6,44.7,6,45.9z"/>
		</g>
	</g>
</g>
</svg>
