<?xml version="1.0" encoding="utf-8"?>
<!-- Generator: Adobe Illustrator 18.1.1, SVG Export Plug-In . SVG Version: 6.00 Build 0)  -->
<!DOCTYPE svg PUBLIC "-//W3C//DTD SVG 1.1//EN" "http://www.w3.org/Graphics/SVG/1.1/DTD/svg11.dtd">
<svg version="1.1" xmlns="http://www.w3.org/2000/svg" xmlns:xlink="http://www.w3.org/1999/xlink" x="0px" y="0px"
	 viewBox="0 0 120 120" enable-background="new 0 0 120 120" xml:space="preserve">
<g id="Base">
	<circle fill="#DCDCDC" cx="60" cy="60" r="50"/>
</g>
<g id="arrows">
	<g>
		<path fill="#FFFFFF" d="M100,49.5c-10.8,0-19.5-8.7-19.5-19.5s8.7-19.5,19.5-19.5s19.5,8.7,19.5,19.5S110.8,49.5,100,49.5z"/>
		<path fill="#DCDCDC" d="M100,11c10.5,0,19,8.5,19,19c0,10.5-8.5,19-19,19c-10.5,0-19-8.5-19-19C81,19.5,89.5,11,100,11 M100,10
			c-11,0-20,9-20,20c0,11,9,20,20,20c11,0,20-9,20-20C120,19,111,10,100,10L100,10z"/>
	</g>
	<polygon fill="#005A91" points="115,30 100,20 100,26 88,26 88,34 100,34 100,40 	"/>
</g>
<g id="Art">
	<g>
		<defs>
			<circle id="SVGID_1_" cx="60" cy="60" r="50"/>
		</defs>
		<clipPath id="SVGID_2_">
			<use xlink:href="#SVGID_1_"  overflow="visible"/>
		</clipPath>
		<rect x="56" y="84.3" clip-path="url(#SVGID_2_)" fill="#002440" width="10" height="25.8"/>
		<g clip-path="url(#SVGID_2_)">
			<rect x="59" y="84" fill="#005A91" width="1" height="26"/>
		</g>
	</g>
	<path fill="#005A91" d="M100,56c0-11-8.9-20-19.9-20C80,36,80,36,80,36l-55-3v54l75-3V56z"/>
	<path fill="#002440" d="M25,33C14,33,5,42,5,53v34l40-0.8V53C45,42,36,33,25,33z"/>
	<rect x="49" y="30" fill="#A61210" width="2" height="30"/>
	<polygon fill="#A61210" points="64,22.5 64,30 49,32 49,20.5 	"/>
	<g>
		<defs>
			<path id="SVGID_3_" d="M20,33C6.3,33-5,42-5,53v47l50-13.8V53C45,42,33.7,33,20,33z"/>
		</defs>
		<clipPath id="SVGID_4_">
			<use xlink:href="#SVGID_3_"  overflow="visible"/>
		</clipPath>
		<polygon clip-path="url(#SVGID_4_)" fill="#5C0000" points="53.8,83.7 2,88 0,60 51,60 		"/>
		<polygon clip-path="url(#SVGID_4_)" fill="#A61210" points="0,60 27,78.5 51,60 		"/>
		<polygon clip-path="url(#SVGID_4_)" fill="#A61210" points="65.5,84.3 14,89 11,55 62,55 		"/>
		<polygon clip-path="url(#SVGID_4_)" fill="#F63723" points="11,55 40,76.9 62,55 		"/>
	</g>
	<polygon opacity="0.25" points="100,84 100,55 45,86.2 	"/>
	<polygon opacity="0.25" points="52.9,34.1 51,60 51,34 	"/>
	<polygon opacity="0.25" points="56,85.7 66,89.8 66,85.4 	"/>
	<polygon opacity="0.25" points="45,86.2 45,55 41.7,55 	"/>
	<polygon opacity="0.25" points="11.3,60 8.6,60 13.8,87.3 	"/>
	<path opacity="0.25" d="M25,33c-0.8,0-1.7,0.1-2.5,0.2C32.4,34.4,37,42.8,37,53v2h8v-2C45,42,36,33,25,33z"/>
	<path display="none" d="M80.1,33C80,33,80,33,80.1,33c-0.1,0-2.3,0-2.2,0c11,0,13.9,12.8,10.6,23.4C84.6,69,68,87,68,87h12h20V53
		C100,42,91.1,33,80.1,33z"/>
</g>
</svg>
