<?xml version="1.0" encoding="utf-8"?>
<!-- Generator: Adobe Illustrator 18.1.1, SVG Export Plug-In . SVG Version: 6.00 Build 0)  -->
<!DOCTYPE svg PUBLIC "-//W3C//DTD SVG 1.1//EN" "http://www.w3.org/Graphics/SVG/1.1/DTD/svg11.dtd">
<svg version="1.1" xmlns="http://www.w3.org/2000/svg" xmlns:xlink="http://www.w3.org/1999/xlink" x="0px" y="0px"
	 viewBox="0 0 120 120" enable-background="new 0 0 120 120" xml:space="preserve">
<g id="Base">
	<circle fill="#DCDCDC" cx="60" cy="60" r="50"/>
</g>
<g id="arrows">
	<g>
		<path fill="#FFFFFF" d="M100,49.5c-10.8,0-19.5-8.7-19.5-19.5s8.7-19.5,19.5-19.5s19.5,8.7,19.5,19.5S110.8,49.5,100,49.5z"/>
		<path fill="#DCDCDC" d="M100,11c10.5,0,19,8.5,19,19c0,10.5-8.5,19-19,19s-19-8.5-19-19C81,19.5,89.5,11,100,11 M100,10
			c-11,0-20,9-20,20c0,11,9,20,20,20s20-9,20-20C120,19,111,10,100,10L100,10z"/>
	</g>
	<polygon fill="#6E9628" points="115,30 100,20 100,26 88,26 88,34 100,34 100,40 	"/>
</g>
<g id="Art">
	<g>
		<path fill="#2A4A1D" d="M85,32.9c0-1.7-1.5-3.2-3.3-3.3c-17.8-0.9-33.3-2.1-51.1-3c-1.8-0.1-3.3-1.3-3.3-3.2
			c0-1.9-1.5-4.3-3.3-4.4c-6.9-0.4-13.8-0.7-20.8-1.1C1.5,17.9,0,19.6,0,21.6C0,42.2,0,62.3,0,83c29.1-0.6,55.9-0.4,85-1
			C85,65.6,85,49.3,85,32.9z"/>
		<path fill="#6E9628" d="M85,37.1c0-1.7-2.2-4-4-4.1c-17.8-0.8-32.5-1-50.4-1.9c-1.8-0.1-3.6,1-3.6,2.9c0,1.9-1.2,3.1-3,3
			c-6.9-0.3-14.1-0.7-21-1c-1.8-0.1-3,2.1-3,4c0,14.4,0,28.6,0,43c29.1-0.6,55.9-0.4,85-1C85,67,85,52.1,85,37.1z"/>
		<path opacity="0.5" fill="#AEE07B" d="M85,74.7C55.9,75,29.1,74.7,0,75c0,2.7,0,5.3,0,8c29.1-0.6,55.9-0.4,85-1
			C85,79.6,85,77.1,85,74.7z"/>
	</g>
	<path opacity="0.26" d="M35.3,50.1c0-1.8-1.5-3.4-3.3-3.4c-6.9-0.1-13.8-0.3-20.8-0.4c-1.8,0-3.3,1.5-3.3,3.4
		c0,11,0.3,22.1,0.6,33.2C34.4,82.4,58.7,82.5,85,82c0-9,0-18,0-27.1c-15.4-0.4-31.2-1.3-46.4-1.5C36.8,53.4,35.3,51.9,35.3,50.1z"
		/>
	<g>
		<path fill="#FFBD2F" d="M98.4,92c0-10.9,0-21.9,0-32.8c0-1.7-1.5-3.1-3.3-3.1c-17.8-0.2-36.7-0.4-54.5-0.6c-1.8,0-3.3-1.5-3.3-3.4
			c0-1.8-1.5-3.4-3.3-3.4c-6.9-0.1-13.8-0.3-20.8-0.4c-1.8,0-3.3,1.5-3.3,3.4c0,20.4,0,41,0,61.4c19-1.1,38.5-2.4,57.8-3.6
			C80,107.5,90.8,101.1,98.4,92z"/>
		<path fill="#DCDCDC" d="M16.6,62c0,16.8,0,33.6,0,50.3c17-1,34.4-2,51.7-3.1c9.9-1.6,18.7-6.2,25.8-12.7c0-11.5,0-22.9,0-34.4
			C68.5,62.2,42.1,62.1,16.6,62z"/>
		<path opacity="0.25" d="M98.4,92c0-7.9,0-15.7,0-23.6c-16.7,0.1-34.4,0.2-51.1,0.3c-1.8,0-3.5,1.5-3.9,3.3c-0.3,1.8-2,3.3-3.9,3.4
			c-6.9,0.1-13.8,0.2-20.8,0.3c-1.8,0-3.5,1.6-3.9,3.5c-1.6,11.1-3.3,22.5-4.9,33.8c19-1.1,38.5-2.4,57.8-3.6
			C80,107.5,90.8,101.1,98.4,92z"/>
		<path fill="#E9AD2B" d="M103.1,85.5c0.8-4,1.7-8,2.6-12c0.3-1.7,0.1-3-1.7-3c-17.8,0.2-36.7,0.3-54.5,0.5c-1.8,0-3.5,1.5-3.9,3.3
			c-0.3,1.8-2,3.3-3.9,3.4C34.8,77.7,27.9,77.9,21,78c-1.8,0-3.5,1.6-3.9,3.5c-2.4,10.3-4.8,21-7.1,31.5c19-1.1,38.5-2.4,57.8-3.6
			C82.8,107.1,95.6,98,103.1,85.5z"/>
		<path opacity="0.5" fill="#F63723" d="M11.9,104.6c-0.6,2.7-1.3,5.7-1.9,8.4c19-1.1,38.3-2.4,57.6-3.6c7.8-1.2,15-4.2,21.2-8.5
			C63.5,102.1,36.7,103.4,11.9,104.6z"/>
	</g>
</g>
</svg>
